<svg width="323" height="337" viewBox="0 0 323 337" fill="none" xmlns="http://www.w3.org/2000/svg">
<path opacity="0.18" d="M225.538 82.7874C231.591 94.7239 237.747 107.746 242.431 120.228C247.192 132.92 257.444 143.656 266.882 152.54C277.302 162.346 288.633 171.068 298.446 181.562C308.258 192.056 316.63 204.741 319.357 219.212C322.444 235.597 317.961 252.757 310.287 267.349C307.897 272.154 304.822 276.529 301.172 280.337C297.38 284.098 292.78 286.834 288.155 289.301C275.771 295.879 262.741 300.988 248.988 302.956C234.672 305.005 220.112 304.095 205.822 302.215C186.604 299.694 167.566 295.421 148.225 294.194C134.284 293.305 120.298 294.032 106.377 295.151C91.48 296.338 76.2926 297.942 61.764 294.262C42.7006 289.443 26.1759 275.471 16.0789 257.576C7.27394 242.013 -2.61632 212.418 5.084 194.968C13.2882 176.386 35.5364 163.768 50.1102 151.583C55.9823 146.656 61.8609 141.223 65.2137 134.092C68.954 126.139 69.2318 116.932 70.7887 108.244C75.821 79.9431 95.9633 55.2545 121.668 45.9668C157.753 32.8979 201.339 41.5723 222.605 77.4695C223.639 79.1815 224.608 80.9811 225.532 82.8009L225.538 82.7874Z" fill="#F26B50"/>
<path opacity="0.18" d="M101.021 120.673H72.5135V161.234H101.021V120.673Z" fill="#F26B50"/>
<path d="M94.077 127.244H65.569V167.806H94.077V127.244Z" fill="white"/>
<path d="M264.996 263.837H257.664V263.17H264.35V200.737H238.561V108.453H214.885V107.786H239.194V200.077H264.996V263.837Z" fill="#F26B50"/>
<path d="M118.134 157.13H117.488V135.063H133.993V115.139H134.633V135.737H118.134V157.13Z" fill="#F26B50"/>
<path d="M198.154 249.987H113.263C107.944 249.987 103.631 254.486 103.631 260.036V277.688C103.631 283.238 107.944 287.738 113.263 287.738H198.154C203.474 287.738 207.786 283.238 207.786 277.688V260.036C207.786 254.486 203.474 249.987 198.154 249.987Z" fill="#F26B50"/>
<path d="M198.154 205.085H113.263C107.944 205.085 103.631 209.584 103.631 215.134V232.786C103.631 238.336 107.944 242.835 113.263 242.835H198.154C203.474 242.835 207.786 238.336 207.786 232.786V215.134C207.786 209.584 203.474 205.085 198.154 205.085Z" fill="#F26B50"/>
<path d="M198.154 205.085H113.263C107.944 205.085 103.631 209.584 103.631 215.134V232.786C103.631 238.336 107.944 242.835 113.263 242.835H198.154C203.474 242.835 207.786 238.336 207.786 232.786V215.134C207.786 209.584 203.474 205.085 198.154 205.085Z" fill="url(#paint0_linear_22_213)"/>
<path d="M208.419 249.987H123.528C118.209 249.987 113.896 254.486 113.896 260.036V277.688C113.896 283.238 118.209 287.738 123.528 287.738H208.419C213.739 287.738 218.051 283.238 218.051 277.688V260.036C218.051 254.486 213.739 249.987 208.419 249.987Z" fill="#F26B50"/>
<path d="M218.051 215.141V232.779C218.064 238.327 213.768 242.836 208.451 242.849C208.432 242.849 208.413 242.849 208.393 242.849H123.535C118.212 242.849 113.903 238.347 113.903 232.8C113.903 232.8 113.903 232.786 113.903 232.779V215.141C113.903 209.587 118.218 205.092 123.535 205.092H208.393C213.716 205.078 218.038 209.574 218.044 215.121C218.044 215.121 218.044 215.134 218.044 215.141H218.051Z" fill="#F26B50"/>
<path d="M218.051 218.1V232.78C218.051 235.907 216.655 238.852 214.285 240.76C214.214 237.639 214.046 228.945 214.285 225.089C214.491 222.292 215.874 219.738 218.051 218.1Z" fill="url(#paint1_linear_22_213)"/>
<path d="M198.154 157.13H113.263C107.944 157.13 103.631 161.629 103.631 167.179V184.831C103.631 190.381 107.944 194.88 113.263 194.88H198.154C203.474 194.88 207.786 190.381 207.786 184.831V167.179C207.786 161.629 203.474 157.13 198.154 157.13Z" fill="#F26B50"/>
<path d="M198.154 157.13H113.263C107.944 157.13 103.631 161.629 103.631 167.179V184.831C103.631 190.381 107.944 194.88 113.263 194.88H198.154C203.474 194.88 207.786 190.381 207.786 184.831V167.179C207.786 161.629 203.474 157.13 198.154 157.13Z" fill="url(#paint2_linear_22_213)"/>
<path d="M208.419 157.13H123.528C118.209 157.13 113.896 161.629 113.896 167.179V184.831C113.896 190.381 118.209 194.88 123.528 194.88H208.419C213.739 194.88 218.051 190.381 218.051 184.831V167.179C218.051 161.629 213.739 157.13 208.419 157.13Z" fill="#F26B50"/>
<path d="M214.866 102.509C214.866 109.485 209.446 115.146 202.754 115.146C202.754 115.146 202.754 115.146 202.747 115.146H119.723C113.031 115.342 107.462 109.835 107.275 102.859C107.087 95.8766 112.365 90.0667 119.051 89.8713C119.277 89.8713 119.497 89.8713 119.723 89.8713H122.494C118.929 76.6272 126.332 62.8708 139.026 59.1503C141.125 58.537 143.302 58.2202 145.486 58.2202H152.553C161.468 58.2135 169.64 63.3965 173.742 71.653C175.757 70.5746 177.992 70.0085 180.26 70.0152H182.107C190.04 70.0152 196.468 76.7215 196.468 84.9982V85.7396C196.468 87.1348 196.281 88.5233 195.912 89.8645H202.786C209.459 89.8982 214.853 95.5463 214.86 102.509H214.866Z" fill="white"/>
<path d="M245.764 240.773C244.582 240.773 243.62 239.789 243.594 238.556V223.876C243.594 218.551 239.459 214.238 234.356 214.238C229.252 214.238 225.118 218.551 225.118 223.876V238.556C225.118 239.809 224.149 240.82 222.948 240.82C221.746 240.82 220.777 239.809 220.777 238.556V223.876C220.777 216.051 226.849 209.702 234.349 209.702C241.849 209.702 247.935 216.037 247.935 223.862V238.556C247.909 239.789 246.946 240.773 245.764 240.773Z" fill="white"/>
<path d="M247.935 223.876V238.556C247.935 239.351 247.521 240.086 246.862 240.483C246.533 240.692 246.152 240.8 245.764 240.8C244.576 240.8 243.607 239.796 243.594 238.556V223.876C243.594 218.996 240.099 214.885 235.454 214.305C235.086 214.265 234.724 214.238 234.356 214.238C229.252 214.238 225.118 218.551 225.118 223.876V238.556C225.112 239.351 224.705 240.079 224.046 240.483C223.71 240.692 223.329 240.8 222.935 240.8C221.74 240.8 220.77 239.782 220.764 238.535V223.876C220.777 216.051 226.856 209.715 234.349 209.708C234.718 209.708 235.086 209.729 235.448 209.769C242.495 210.369 247.922 216.502 247.928 223.876H247.935Z" fill="url(#paint3_linear_22_213)"/>
<path d="M247.935 223.876V238.556C248.284 239.169 248.083 239.964 247.495 240.322C246.908 240.686 246.145 240.477 245.803 239.863C245.577 239.459 245.577 238.96 245.803 238.556V223.876C245.803 218.551 241.669 214.238 236.565 214.238C236.197 214.238 235.822 214.265 235.454 214.305C235.086 214.265 234.724 214.238 234.356 214.238C229.252 214.238 225.118 218.551 225.118 223.876V238.556C225.46 239.176 225.26 239.964 224.666 240.322C224.072 240.679 223.316 240.47 222.973 239.85C222.754 239.452 222.754 238.96 222.973 238.556V223.876C222.379 216.691 227.482 210.362 234.369 209.742C241.255 209.122 247.321 214.447 247.915 221.632C247.98 222.38 247.98 223.128 247.915 223.876H247.935Z" fill="url(#paint4_linear_22_213)"/>
<path d="M249.304 238.502H218.09C213.476 238.502 209.737 242.403 209.737 247.217V279.784C209.737 284.597 213.476 288.499 218.09 288.499H249.304C253.917 288.499 257.657 284.597 257.657 279.784V247.217C257.657 242.403 253.917 238.502 249.304 238.502Z" fill="#F26B50"/>
<path d="M249.311 238.509H218.077C213.471 238.509 209.737 242.404 209.737 247.21V279.798C209.737 284.603 213.471 288.499 218.077 288.499H249.311C253.917 288.499 257.651 284.603 257.651 279.798V247.21C257.651 242.404 253.917 238.509 249.311 238.509Z" fill="url(#paint5_linear_22_213)"/>
<path d="M249.317 238.509H226.391C221.785 238.509 218.051 242.404 218.051 247.21V279.798C218.051 284.603 221.785 288.499 226.391 288.499H249.317C253.923 288.499 257.657 284.603 257.657 279.798V247.21C257.657 242.404 253.923 238.509 249.317 238.509Z" fill="url(#paint6_linear_22_213)"/>
<path d="M237.812 261.869C236.21 261.337 235.318 259.551 235.829 257.872C236.339 256.194 238.051 255.271 239.66 255.803C241.262 256.336 242.153 258.122 241.643 259.8C241.346 260.784 240.603 261.552 239.66 261.869L242.03 269.735H235.667L237.812 261.869Z" fill="url(#paint7_linear_22_213)"/>
<path d="M130.221 180.679C132.479 180.679 134.31 178.769 134.31 176.413C134.31 174.057 132.479 172.146 130.221 172.146C127.962 172.146 126.131 174.057 126.131 176.413C126.131 178.769 127.962 180.679 130.221 180.679Z" fill="white"/>
<path d="M142.521 180.679C144.779 180.679 146.61 178.769 146.61 176.413C146.61 174.057 144.779 172.146 142.521 172.146C140.262 172.146 138.431 174.057 138.431 176.413C138.431 178.769 140.262 180.679 142.521 180.679Z" fill="white"/>
<path d="M154.833 180.679C157.092 180.679 158.922 178.769 158.922 176.413C158.922 174.057 157.092 172.146 154.833 172.146C152.575 172.146 150.744 174.057 150.744 176.413C150.744 178.769 152.575 180.679 154.833 180.679Z" fill="white"/>
<path d="M130.221 228.23C132.479 228.23 134.31 226.32 134.31 223.963C134.31 221.607 132.479 219.697 130.221 219.697C127.962 219.697 126.131 221.607 126.131 223.963C126.131 226.32 127.962 228.23 130.221 228.23Z" fill="white"/>
<path d="M142.521 228.23C144.779 228.23 146.61 226.32 146.61 223.963C146.61 221.607 144.779 219.697 142.521 219.697C140.262 219.697 138.431 221.607 138.431 223.963C138.431 226.32 140.262 228.23 142.521 228.23Z" fill="white"/>
<path d="M154.833 228.23C157.092 228.23 158.922 226.32 158.922 223.963C158.922 221.607 157.092 219.697 154.833 219.697C152.575 219.697 150.744 221.607 150.744 223.963C150.744 226.32 152.575 228.23 154.833 228.23Z" fill="white"/>
<path d="M130.221 275.781C132.479 275.781 134.31 273.87 134.31 271.514C134.31 269.158 132.479 267.248 130.221 267.248C127.962 267.248 126.131 269.158 126.131 271.514C126.131 273.87 127.962 275.781 130.221 275.781Z" fill="white"/>
<path d="M142.521 275.781C144.779 275.781 146.61 273.87 146.61 271.514C146.61 269.158 144.779 267.248 142.521 267.248C140.262 267.248 138.431 269.158 138.431 271.514C138.431 273.87 140.262 275.781 142.521 275.781Z" fill="white"/>
<path d="M154.833 275.781C157.092 275.781 158.922 273.87 158.922 271.514C158.922 269.158 157.092 267.248 154.833 267.248C152.575 267.248 150.744 269.158 150.744 271.514C150.744 273.87 152.575 275.781 154.833 275.781Z" fill="white"/>
<path d="M261.85 139.464H222.973V180.025H261.85V139.464Z" fill="#F26B50"/>
<path d="M51.8802 240.834C52.0934 242.903 52.7782 244.884 53.8829 246.617C58.3144 254.792 63.2886 262.833 70.1491 268.899C80.2461 277.803 93.4568 281.651 106.222 285.284C105.085 284.704 103.709 278.537 103.198 277.216C102.21 274.574 101.286 271.905 100.343 269.243C98.838 265.051 95.7243 261.681 92.6235 258.587C85.679 251.584 77.2358 246.408 67.998 243.476C62.7718 241.804 57.3454 240.921 51.8802 240.834Z" fill="#F26B50"/>
<path d="M51.8802 240.834C52.0934 242.903 52.7782 244.884 53.8829 246.617C58.3144 254.792 63.2886 262.833 70.1491 268.899C80.2461 277.803 93.4568 281.651 106.222 285.284C105.085 284.704 103.709 278.537 103.198 277.216C102.21 274.574 101.286 271.905 100.343 269.243C98.838 265.051 95.7243 261.681 92.6235 258.587C85.679 251.584 77.2358 246.408 67.998 243.476C62.7718 241.804 57.3454 240.921 51.8802 240.834Z" fill="url(#paint8_linear_22_213)"/>
<path d="M101.823 245.41C100.776 237.807 99.7101 230.104 96.7773 223.06C93.8509 216.017 88.7669 209.567 81.8676 206.938C81.6673 217.823 81.4671 228.702 81.2668 239.58C81.1441 245.862 81.0472 252.271 82.772 258.297C85.8082 268.899 96.3315 281.247 106.467 284.731C107.972 279.663 105.453 271.979 104.73 266.709L101.823 245.41Z" fill="#F26B50"/>
<path d="M207.779 222.238H175.757V225.675H207.779V222.238Z" fill="white"/>
<path d="M207.779 269.789H175.757V273.226H207.779V269.789Z" fill="white"/>
<path d="M232.418 152.964L242.211 147.626L251.604 152.937C251.604 152.937 249.86 166.053 242.444 169.814C242.424 169.814 233.225 166.141 232.424 152.971L232.418 152.964Z" fill="white"/>
<path d="M190.021 182.951C189.239 183.315 188.8 184.191 188.961 185.074C189.052 185.93 189.44 186.739 189.569 187.588C189.95 190.061 187.973 192.468 185.654 193.088C182.618 193.896 179.504 192.299 176.804 190.628C176.468 190.446 176.158 190.216 175.88 189.94C175.447 189.34 175.189 188.633 175.124 187.884C174.833 186.489 174.672 185.067 174.633 183.631C174.633 180.363 176.009 177.242 176.08 173.993C176.125 169.437 173.722 165.231 169.853 163.115C168.277 162.394 166.662 161.78 165.001 161.295C163.548 160.769 162.14 160.122 160.789 159.367C159.937 158.902 159.006 158.249 158.942 157.258C160.369 156.591 161.933 156.314 163.483 156.449H190.273C190.609 156.415 190.945 156.476 191.255 156.631C191.558 156.874 191.784 157.211 191.901 157.595C193.69 162.077 193.483 167.038 193.852 171.789C193.994 174.108 194.407 176.406 195.079 178.624C195.46 179.83 196.694 182.128 195.919 183.396C194.459 185.748 191.662 182.479 190.014 182.944L190.021 182.951Z" fill="url(#paint9_linear_22_213)"/>
<path d="M154.736 102.603C155.176 101.855 155.512 101.053 155.751 100.21C156.649 97.6694 157.689 95.1824 158.864 92.7695C159.342 91.6034 160.053 90.5587 160.951 89.7028C162.624 88.2739 164.975 88.2402 167.14 88.2671C168.58 88.2671 170.227 88.4087 171.093 89.6084C171.558 90.4037 171.791 91.3204 171.765 92.2505C172.23 99.988 171.41 107.752 169.336 115.2C165.363 115.409 161.384 115.598 157.404 115.753C154.698 115.867 149.297 117.215 147.075 115.193C141.409 110.044 152.857 105.4 154.73 102.61L154.736 102.603Z" fill="url(#paint10_linear_22_213)"/>
<path d="M192.695 173.629C192.514 174.795 192.579 175.988 192.883 177.127C193.309 178.206 194.039 179.122 194.982 179.756C196.978 181.212 199.44 181.805 201.843 181.414C202.166 181.394 202.476 181.259 202.708 181.016C202.857 180.814 202.934 180.565 202.941 180.315C202.934 178.961 202.437 177.653 201.546 176.662C200.66 175.678 199.937 174.546 199.414 173.319C198.639 170.927 200.17 165.063 195.996 165.467C192.54 165.804 192.96 171.095 192.702 173.629H192.695Z" fill="#FFB4A3"/>
<path d="M177.54 141.082C180.712 141.203 183.877 141.52 187.017 142.046C192.56 142.935 196.106 145.389 197.476 151.192C198.729 156.489 199.989 161.861 199.969 167.327C200.099 168.615 199.743 169.909 198.981 170.933C197.695 172.281 195.37 171.783 194.104 170.435C192.837 169.087 192.321 167.145 191.804 165.326C190.938 162.232 189.834 154.899 186.694 154.077C181.371 152.688 175.906 156.186 170.693 154.077C168.832 153.396 167.062 152.479 165.421 151.34C163.78 150.188 162.508 148.543 161.784 146.615C161.455 145.591 161.274 144.526 161.242 143.448C161.177 142.558 161.196 141.668 161.3 140.785C161.468 139.761 161.629 139.882 162.618 139.889C164.291 139.889 165.951 140.024 167.618 140.185C170.925 140.475 174.233 140.987 177.547 141.082H177.54Z" fill="#231F20"/>
<path d="M191.662 177.599C191.662 177.599 190.906 178.994 191.507 179.958C192.107 180.922 198.807 186.637 204.181 183.503C209.556 180.369 198.064 178.3 198.064 178.3L191.662 177.599Z" fill="#F26B50"/>
<path d="M192.385 174.202C192.876 174.027 193.412 174.256 193.651 174.735C194.472 176.015 195.867 176.77 197.346 176.73C198.994 176.548 199.879 174.714 200.673 174.802C201.468 174.89 205.234 179.244 205.292 180.895C205.35 182.546 203.018 183.436 200.602 183.274C198.186 183.112 192.98 180.632 192.114 179.176C191.416 177.572 191.52 175.712 192.392 174.202H192.385Z" fill="white"/>
<path d="M180.996 179.587C180.634 180.706 180.505 181.899 180.628 183.079C180.88 184.218 181.455 185.242 182.282 186.031C184.02 187.817 186.358 188.821 188.793 188.848C189.116 188.889 189.446 188.801 189.717 188.606C189.892 188.43 190.014 188.201 190.06 187.952C190.266 186.604 189.976 185.229 189.259 184.097C188.542 182.978 188.005 181.738 187.676 180.437C187.282 177.95 189.717 172.416 185.531 172.099C182.03 171.85 181.616 177.161 180.996 179.594V179.587Z" fill="#FFB4A3"/>
<path d="M171.1 144.89C174.226 145.53 177.308 146.373 180.337 147.404C185.628 149.224 188.768 152.223 189.213 158.215C189.607 163.661 190.008 169.174 189.142 174.6C189.065 175.894 188.516 177.107 187.598 177.983C186.119 179.089 183.903 178.206 182.857 176.655C181.81 175.105 181.616 173.117 181.397 171.23C181.016 168.028 181.093 160.628 178.115 159.259C174.976 157.831 171.474 158.296 168.141 158.1C166.403 158.006 164.575 157.649 162.876 157.608C157.198 157.48 156.015 153.072 155.822 152.378C155.117 150.16 154.762 147.835 154.769 145.496C154.84 144.351 155.014 143.218 155.298 142.113C155.512 141.082 155.518 140.967 156.59 141.149C158.244 141.439 159.872 141.85 161.474 142.295C164.672 143.144 167.837 144.223 171.1 144.89Z" fill="#231F20"/>
<path d="M179.31 183.328C179.31 183.328 178.386 184.582 178.78 185.633C179.175 186.685 184.924 193.465 190.725 191.288C196.526 189.111 185.518 185.107 185.518 185.107L179.31 183.321V183.328Z" fill="#F26B50"/>
<path d="M180.551 180.099C181.061 180.012 181.565 180.329 181.726 180.841C182.34 182.256 183.606 183.24 185.079 183.443C186.733 183.537 187.85 181.879 188.664 182.115C189.478 182.351 192.469 187.278 192.237 188.861C192.004 190.445 189.595 190.985 187.237 190.405C184.879 189.825 180.131 186.502 179.504 184.919C179.078 183.234 179.472 181.434 180.551 180.099Z" fill="white"/>
<path d="M191.449 138.345L177.127 143.805L187.282 150.363L201.765 141.837L191.449 138.345Z" fill="#F26B50"/>
<path d="M191.449 138.345L177.127 143.805L187.282 150.363L201.765 141.837L191.449 138.345Z" fill="url(#paint11_linear_22_213)"/>
<path d="M176.474 145.315L187.605 153.362L206.21 145.315L213.348 130.311L191.836 137.058L187.282 150.363L177.127 143.805L176.474 145.315Z" fill="#F26B50"/>
<path d="M178.839 128.882C177.728 129.577 176.565 129.846 175.622 129.145L175.389 128.943C173.89 127.413 173.651 124.124 173.716 121.725C173.742 120.714 173.819 119.709 173.955 118.705L179.607 111.534L182.527 125.25C181.487 126.658 180.24 127.885 178.832 128.882H178.839Z" fill="white"/>
<path d="M178.89 125.452C178.787 126.105 178.78 126.8 178.69 127.474C178.18 131.154 176.842 134.82 177.353 138.588C177.592 139.41 177.572 140.286 177.295 141.095C176.901 141.715 176.3 142.16 175.615 142.349C172.256 143.65 168.587 143.643 165.001 143.609C162.314 143.609 158.451 143.832 156.229 141.971C155.402 141.109 154.937 139.943 154.924 138.723C154.53 134.78 154.53 130.803 154.924 126.86L155.034 125.317C155.344 121.765 155.77 118.233 156.326 114.715C156.739 112.174 157.32 109.431 159.2 107.746C161.694 105.501 166.054 104.443 169.271 104.315C170.318 104.248 171.364 104.342 172.385 104.591C173.813 105.063 175.15 105.778 176.345 106.715C177.786 107.752 179.071 108.642 179.607 110.368C180.189 112.349 180.499 114.398 180.531 116.467C180.557 118.422 180.318 120.363 179.827 122.25C179.594 123.167 179.233 124.063 179.013 124.98C178.948 125.115 178.923 125.276 178.89 125.452Z" fill="white"/>
<path opacity="0.1" d="M161.552 144.108C160.479 144.263 158.264 142.922 157.495 142.652C157.043 142.497 156.642 142.187 156.203 141.998C153.948 141.035 154.639 134.146 154.672 132.266C154.762 127.305 154.543 122.115 155.182 117.222C155.344 115.321 155.822 113.468 156.597 111.736C157.385 109.99 158.877 108.703 160.673 108.218C161.015 108.103 161.384 108.103 161.726 108.218C163.096 108.817 163.044 111.311 163.121 112.538C163.147 113.771 163.393 114.984 163.851 116.124C164.388 117.33 165.247 117.775 166.08 118.665C168.031 120.579 169.581 122.891 170.634 125.458C171.112 126.806 171.364 128.235 171.791 129.61C172.889 132.63 174.446 135.447 176.41 137.948C177.075 138.911 177.786 140.071 177.398 141.169C177.049 141.931 176.41 142.504 175.634 142.74C174.685 143.144 173.651 143.292 172.631 143.171C170.221 142.841 168.399 140.812 166.248 139.646C165.499 139.242 164.071 138.554 163.218 138.945C162.366 139.336 162.075 140.516 161.946 141.318C161.875 141.83 162.275 143.488 162.049 143.811C161.939 143.98 161.765 144.088 161.571 144.108H161.552Z" fill="#020202"/>
<path d="M174.833 102.05C174.401 102.414 173.851 102.603 173.289 102.583C172.818 102.569 172.353 102.502 171.894 102.387H171.642C171.578 102.36 171.507 102.36 171.448 102.387C171.384 102.435 171.339 102.509 171.326 102.59C171.093 103.54 170.938 104.504 170.867 105.481V106.014C170.873 106.196 170.835 106.384 170.744 106.546C170.583 106.721 170.363 106.829 170.124 106.843C169.698 106.917 169.265 106.917 168.839 106.843C167.941 106.613 167.107 106.155 166.416 105.501C166.713 103.864 166.862 102.199 166.862 100.527C166.862 98.3704 166.642 96.1799 167.159 94.0905C167.443 92.1696 169.168 90.8553 171.009 91.1519C171.158 91.1788 171.3 91.2125 171.448 91.253C172.908 91.4484 174.291 92.0753 175.421 93.066C175.751 93.4367 175.912 93.9422 175.854 94.441C175.854 95.297 175.899 96.1597 175.854 97.0157C175.809 97.8717 175.731 98.9433 175.615 99.9071C175.602 100.696 175.324 101.451 174.827 102.044L174.833 102.05Z" fill="#FFB4A3"/>
<path d="M174.407 93.4165C173.354 93.4165 172.236 93.0795 171.203 93.3491C169.736 93.868 168.864 95.4385 169.162 97.0224C168.735 97.11 168.774 96.3484 168.516 95.9979C168.257 95.6541 167.501 95.9979 167.379 96.4629C167.333 96.9887 167.411 97.5144 167.611 97.9929C167.85 98.9567 167.766 99.9745 167.379 100.884C167.288 101.093 167.094 101.336 166.888 101.248C166.681 101.161 166.571 100.75 166.474 100.554C166.3 100.285 166.112 100.022 165.912 99.7723C165.499 99.26 164.988 98.8085 164.594 98.2895C163.735 97.4537 163.289 96.2607 163.386 95.0408C163.477 94.5623 163.703 94.1174 164.026 93.7602C164.297 93.4434 164.627 93.194 164.995 93.0255C165.143 92.9514 165.318 92.8705 165.376 92.7155C165.395 92.6211 165.395 92.52 165.376 92.4257C165.337 91.1383 166.022 89.9386 167.133 89.3725C168.225 88.8333 169.426 88.5704 170.634 88.6041H172.992C173.632 88.6648 174.284 88.6041 174.904 88.4289C174.814 87.9705 174.665 87.5257 174.472 87.1011C174.988 87.3505 175.473 87.674 175.906 88.0649C175.919 87.7818 175.886 87.4987 175.815 87.2291C176.649 87.5864 177.372 88.1795 177.902 88.9344C178.425 89.9925 178.27 91.2731 177.521 92.1628C176.791 92.9447 175.796 93.3895 174.749 93.3962L174.426 93.4165H174.407Z" fill="#C14834"/>
<path d="M171.894 102.394H171.642C171.578 102.367 171.507 102.367 171.448 102.394C171.384 102.441 171.339 102.515 171.326 102.596C171.093 103.547 170.938 104.511 170.867 105.488C169.265 104.666 168.438 102.778 168.89 100.979C169.833 101.572 170.835 102.057 171.875 102.435L171.894 102.394Z" fill="#E0A194"/>
<path d="M195.932 133.964C195.312 133.695 194.788 133.088 194.084 133.115C193.38 133.142 192.818 134.005 192.237 134.557C191.604 135.151 190.777 135.461 189.93 135.434C189.659 135.42 189.394 135.38 189.136 135.306C188.038 134.969 187.082 134.261 186.423 133.29C186.423 133.29 188.141 131.275 188.361 131.14C189.116 130.689 190.144 130.729 190.958 130.271C191.778 129.725 192.631 129.233 193.509 128.788C195.299 128.02 197.327 128.181 198.987 129.219C199.188 129.347 199.414 129.577 199.304 129.806C199.259 129.893 199.181 129.961 199.091 130.001C198.141 130.392 197.108 130.513 196.1 130.338C196.694 130.642 197.243 131.019 197.747 131.477C197.967 131.679 198.173 132.064 197.934 132.246C197.805 132.306 197.657 132.306 197.527 132.246L195.292 131.679C195.874 132.145 196.352 132.731 196.707 133.398C196.772 133.506 196.804 133.634 196.797 133.762C196.688 134.059 196.242 134.092 195.945 133.958L195.932 133.964Z" fill="#FFB4A3"/>
<path d="M195.932 133.964C195.312 133.695 194.788 133.088 194.084 133.115C193.38 133.142 192.818 134.005 192.237 134.557C191.604 135.15 190.777 135.46 189.93 135.434C189.717 135.332 189.511 135.204 189.323 135.056C189.181 134.962 189.071 134.82 189.02 134.652C188.987 134.335 189.181 134.045 189.472 133.957C189.775 133.883 190.085 133.836 190.396 133.816C190.887 133.722 191.326 133.438 191.623 133.027C191.875 132.684 192.03 132.239 192.392 132.064C192.631 131.949 192.889 131.888 193.147 131.888L194.162 131.821C194.317 131.821 194.472 131.794 194.614 131.727C194.756 131.652 194.84 131.497 194.827 131.329C194.827 131.147 194.614 131.053 194.446 130.985C194.116 130.857 192.999 130.79 193.716 130.379C194.239 130.149 194.795 130.008 195.363 129.974C196.494 129.86 197.637 129.86 198.774 129.974C198.897 129.988 199.013 130.008 199.136 130.042C198.186 130.432 197.153 130.554 196.145 130.379C196.739 130.682 197.288 131.059 197.792 131.518C198.012 131.72 198.219 132.104 197.98 132.286C197.85 132.347 197.702 132.347 197.573 132.286L195.337 131.72C195.919 132.185 196.397 132.771 196.752 133.438C196.817 133.546 196.849 133.674 196.843 133.802C196.688 134.072 196.242 134.099 195.945 133.964H195.932Z" fill="#E0A194"/>
<path d="M186.526 133.985C184.246 133.958 181.985 133.506 179.846 132.664C178.328 132.043 176.985 131.032 175.951 129.725C175.815 129.556 175.712 129.361 175.647 129.145C175.531 128.788 175.531 128.397 175.647 128.04C175.932 126.982 176.526 126.045 177.346 125.351C179.556 123.632 182.553 125.256 182.553 125.256C182.553 125.256 188.18 129.826 188.335 130.729C188.425 131.221 187.883 132.145 187.353 132.879C186.823 133.614 186.52 133.985 186.52 133.985H186.526Z" fill="white"/>
<path d="M159.997 108.187L159.99 108.189C157.232 108.755 155.435 111.547 155.978 114.425L158.642 128.551C159.185 131.429 161.861 133.303 164.619 132.737L164.626 132.736C167.384 132.169 169.18 129.377 168.638 126.499L165.974 112.373C165.431 109.495 162.755 107.621 159.997 108.187Z" fill="white"/>
<path opacity="0.1" d="M186.526 133.985C184.246 133.958 181.985 133.506 179.846 132.663C179.582 132.556 178.199 131.7 177.999 131.787C177.915 131.855 177.857 131.949 177.831 132.057L177.082 134.281C176.629 133.971 176.345 133.452 176.326 132.886C176.268 132.326 176.326 131.767 176.268 131.221C176.093 130.372 175.815 129.543 175.447 128.761C174.439 126.078 174.627 123.093 174.821 120.221L176.868 125.822C177.036 126.355 177.275 126.867 177.572 127.332C177.844 127.689 178.154 128.013 178.496 128.296C179.956 129.657 181.636 130.736 183.458 131.484C183.774 131.619 187.224 133.149 187.411 132.872C186.933 133.506 186.526 133.978 186.526 133.978V133.985Z" fill="#020202"/>
<path d="M187.553 145.753C186.998 145.24 186.629 144.411 185.919 144.223C185.208 144.027 184.478 144.742 183.787 145.186C182.992 145.604 182.062 145.631 181.248 145.274C180.977 145.166 180.725 145.031 180.479 144.87C179.439 144.101 178.645 143.023 178.199 141.776C178.199 141.776 180.312 140.199 180.563 140.125C181.416 139.902 182.411 140.286 183.335 140.125C184.265 139.821 185.215 139.579 186.171 139.39C188.212 139.228 190.208 140.098 191.526 141.729C191.701 141.938 191.868 142.268 191.72 142.47C191.655 142.544 191.565 142.598 191.468 142.605C190.415 142.693 189.356 142.463 188.419 141.951C188.955 142.484 189.42 143.084 189.814 143.737C190.002 144.027 190.118 144.506 189.814 144.627C189.685 144.627 189.536 144.627 189.407 144.499L187.301 143.124C187.786 143.825 188.141 144.62 188.354 145.456C188.393 145.591 188.393 145.732 188.354 145.867C188.264 146.117 187.812 146.042 187.553 145.753Z" fill="#FFB4A3"/>
<path d="M187.553 145.753C186.998 145.24 186.629 144.411 185.919 144.223C185.208 144.027 184.478 144.742 183.787 145.186C182.992 145.604 182.062 145.631 181.248 145.274C181.054 145.092 180.88 144.89 180.719 144.667C180.589 144.519 180.505 144.33 180.486 144.128C180.505 143.798 180.77 143.535 181.087 143.528C181.397 143.549 181.707 143.596 182.011 143.67C182.508 143.751 183.018 143.596 183.393 143.245C183.716 142.956 183.968 142.531 184.317 142.416C184.582 142.369 184.846 142.396 185.105 142.484L186.138 142.76C186.294 142.794 186.449 142.794 186.597 142.76C186.765 142.726 186.888 142.578 186.894 142.403C186.868 142.201 186.759 142.019 186.591 141.911C186.287 141.661 185.189 141.196 185.99 141.008C186.558 140.934 187.14 140.967 187.702 141.122C188.865 141.399 190.002 141.803 191.093 142.315C191.216 142.369 191.332 142.437 191.442 142.511C190.389 142.598 189.33 142.369 188.393 141.857C188.929 142.389 189.394 142.989 189.788 143.643C189.976 143.933 190.092 144.411 189.788 144.533C189.659 144.533 189.511 144.533 189.381 144.405L187.275 143.03C187.76 143.731 188.115 144.526 188.328 145.362C188.367 145.497 188.367 145.638 188.328 145.773C188.264 146.117 187.812 146.042 187.553 145.753Z" fill="#E0A194"/>
<path d="M172.146 129.658L181.694 138.514L178.535 144.499C178.535 144.499 160.363 135.622 159.439 131.336C158.515 127.049 163.322 127.211 163.322 127.211C163.322 127.211 167.295 123.989 172.146 129.658Z" fill="white"/>
<defs>
<linearGradient id="paint0_linear_22_213" x1="199.117" y1="224.341" x2="-32.3337" y2="222.477" gradientUnits="userSpaceOnUse">
<stop stop-color="#231F20"/>
<stop offset="0.13" stop-color="#231F20" stop-opacity="0.69"/>
<stop offset="0.25" stop-color="#231F20" stop-opacity="0.32"/>
<stop offset="1" stop-color="#231F20" stop-opacity="0"/>
</linearGradient>
<linearGradient id="paint1_linear_22_213" x1="187.573" y1="220.277" x2="254.612" y2="239.98" gradientUnits="userSpaceOnUse">
<stop stop-color="#231F20"/>
<stop offset="0.13" stop-color="#231F20" stop-opacity="0.69"/>
<stop offset="0.25" stop-color="#231F20" stop-opacity="0.32"/>
<stop offset="1" stop-color="#231F20" stop-opacity="0"/>
</linearGradient>
<linearGradient id="paint2_linear_22_213" x1="202.831" y1="181.171" x2="-30.1295" y2="157.721" gradientUnits="userSpaceOnUse">
<stop stop-color="#231F20"/>
<stop offset="0.13" stop-color="#231F20" stop-opacity="0.69"/>
<stop offset="0.25" stop-color="#231F20" stop-opacity="0.32"/>
<stop offset="1" stop-color="#231F20" stop-opacity="0"/>
</linearGradient>
<linearGradient id="paint3_linear_22_213" x1="235.222" y1="252.184" x2="233.633" y2="216.737" gradientUnits="userSpaceOnUse">
<stop stop-color="#231F20"/>
<stop offset="0.13" stop-color="#231F20" stop-opacity="0.69"/>
<stop offset="0.25" stop-color="#231F20" stop-opacity="0.32"/>
<stop offset="1" stop-color="#231F20" stop-opacity="0"/>
</linearGradient>
<linearGradient id="paint4_linear_22_213" x1="233.167" y1="269.978" x2="237.427" y2="204.696" gradientUnits="userSpaceOnUse">
<stop stop-color="#231F20"/>
<stop offset="0.13" stop-color="#231F20" stop-opacity="0.69"/>
<stop offset="0.25" stop-color="#231F20" stop-opacity="0.32"/>
<stop offset="1" stop-color="#231F20" stop-opacity="0"/>
</linearGradient>
<linearGradient id="paint5_linear_22_213" x1="138.541" y1="230.65" x2="415.548" y2="318.515" gradientUnits="userSpaceOnUse">
<stop stop-color="#231F20"/>
<stop offset="0.13" stop-color="#231F20" stop-opacity="0.69"/>
<stop offset="0.25" stop-color="#231F20" stop-opacity="0.32"/>
<stop offset="1" stop-color="#231F20" stop-opacity="0"/>
</linearGradient>
<linearGradient id="paint6_linear_22_213" x1="156.061" y1="235.26" x2="394.157" y2="310.785" gradientUnits="userSpaceOnUse">
<stop stop-color="#231F20"/>
<stop offset="0.13" stop-color="#231F20" stop-opacity="0.69"/>
<stop offset="0.25" stop-color="#231F20" stop-opacity="0.32"/>
<stop offset="1" stop-color="#231F20" stop-opacity="0"/>
</linearGradient>
<linearGradient id="paint7_linear_22_213" x1="234.679" y1="262.698" x2="253.755" y2="262.698" gradientUnits="userSpaceOnUse">
<stop stop-color="#231F20"/>
<stop offset="0.13" stop-color="#231F20" stop-opacity="0.69"/>
<stop offset="0.25" stop-color="#231F20" stop-opacity="0.32"/>
<stop offset="1" stop-color="#231F20" stop-opacity="0"/>
</linearGradient>
<linearGradient id="paint8_linear_22_213" x1="106.209" y1="238.92" x2="24.184" y2="305.882" gradientUnits="userSpaceOnUse">
<stop stop-color="#231F20"/>
<stop offset="0.13" stop-color="#231F20" stop-opacity="0.69"/>
<stop offset="0.25" stop-color="#231F20" stop-opacity="0.32"/>
<stop offset="1" stop-color="#231F20" stop-opacity="0"/>
</linearGradient>
<linearGradient id="paint9_linear_22_213" x1="193.496" y1="147.215" x2="149.072" y2="205.962" gradientUnits="userSpaceOnUse">
<stop stop-color="#231F20"/>
<stop offset="0.13" stop-color="#231F20" stop-opacity="0.69"/>
<stop offset="0.25" stop-color="#231F20" stop-opacity="0.32"/>
<stop offset="1" stop-color="#231F20" stop-opacity="0"/>
</linearGradient>
<linearGradient id="paint10_linear_22_213" x1="247.948" y1="112.315" x2="70.1107" y2="93.8656" gradientUnits="userSpaceOnUse">
<stop stop-color="#231F20"/>
<stop offset="0.13" stop-color="#231F20" stop-opacity="0.69"/>
<stop offset="0.25" stop-color="#231F20" stop-opacity="0.32"/>
<stop offset="1" stop-color="#231F20" stop-opacity="0"/>
</linearGradient>
<linearGradient id="paint11_linear_22_213" x1="201.862" y1="154.575" x2="155.152" y2="113.945" gradientUnits="userSpaceOnUse">
<stop stop-color="#231F20"/>
<stop offset="0.13" stop-color="#231F20" stop-opacity="0.69"/>
<stop offset="0.25" stop-color="#231F20" stop-opacity="0.32"/>
<stop offset="1" stop-color="#231F20" stop-opacity="0"/>
</linearGradient>
</defs>
</svg>
