<svg width="33" height="24" viewBox="0 0 33 24" fill="none" xmlns="http://www.w3.org/2000/svg">
<path d="M0 22.3704V7.97037H4.20734V22.3704H0ZM8.55217 22.3704V13.9556C8.55217 13.2247 8.34134 12.6617 7.91969 12.2667C7.51637 11.8519 7.01223 11.6444 6.40725 11.6444C5.9856 11.6444 5.60978 11.7432 5.27979 11.9407C4.94981 12.1185 4.68398 12.3753 4.48233 12.7111C4.299 13.0469 4.20734 13.4617 4.20734 13.9556L2.5849 13.1852C2.5849 12.0395 2.81406 11.0617 3.27237 10.2519C3.73069 9.42222 4.354 8.79012 5.1423 8.35556C5.9306 7.90123 6.81973 7.67407 7.8097 7.67407C8.74466 7.67407 9.57879 7.90123 10.3121 8.35556C11.0637 8.80988 11.6595 9.44198 12.0995 10.2519C12.5395 11.0617 12.7595 12.0296 12.7595 13.1556V22.3704H8.55217ZM17.1043 22.3704V13.9556C17.1043 13.2247 16.8935 12.6617 16.4719 12.2667C16.0685 11.8519 15.5644 11.6444 14.9594 11.6444C14.5378 11.6444 14.1619 11.7432 13.832 11.9407C13.502 12.1185 13.2362 12.3753 13.0345 12.7111C12.8512 13.0469 12.7595 13.4617 12.7595 13.9556L10.3396 13.6C10.3763 12.3753 10.6421 11.3284 11.1371 10.4593C11.6504 9.57037 12.3195 8.88889 13.1445 8.41481C13.9878 7.92099 14.9319 7.67407 15.9769 7.67407C17.0035 7.67407 17.911 7.91111 18.6993 8.38519C19.5059 8.83951 20.1384 9.50123 20.5967 10.3704C21.0733 11.2198 21.3117 12.2469 21.3117 13.4519V22.3704H17.1043Z" fill="#F26B50"/>
<path d="M22.6054 24L29.3426 0H33L26.2628 24H22.6054Z" fill="#F26B50"/>
</svg>
