<svg xmlns="http://www.w3.org/2000/svg" version="1.1" xmlns:xlink="http://www.w3.org/1999/xlink" width="107" height="107"><svg width="107" height="107" viewBox="0 0 107 107" fill="none" xmlns="http://www.w3.org/2000/svg">
<rect width="107" height="107" rx="10" fill="#222222"></rect>
<path d="M16.7373 77V45.896H26.5293V77H16.7373ZM36.6413 77V58.824C36.6413 57.2453 36.1506 56.0293 35.1693 55.176C34.2306 54.28 33.0573 53.832 31.6493 53.832C30.6679 53.832 29.7933 54.0453 29.0253 54.472C28.2573 54.856 27.6386 55.4107 27.1693 56.136C26.7426 56.8613 26.5293 57.7573 26.5293 58.824L22.7533 57.16C22.7533 54.6853 23.2866 52.5733 24.3533 50.824C25.4199 49.032 26.8706 47.6667 28.7053 46.728C30.5399 45.7467 32.6093 45.256 34.9133 45.256C37.0893 45.256 39.0306 45.7467 40.7373 46.728C42.4866 47.7093 43.8733 49.0747 44.8973 50.824C45.9213 52.5733 46.4333 54.664 46.4333 57.096V77H36.6413ZM56.5453 77V58.824C56.5453 57.2453 56.0546 56.0293 55.0733 55.176C54.1346 54.28 52.9613 53.832 51.5533 53.832C50.5719 53.832 49.6973 54.0453 48.9293 54.472C48.1613 54.856 47.5426 55.4107 47.0732 56.136C46.6466 56.8613 46.4333 57.7573 46.4333 58.824L40.8013 58.056C40.8866 55.4107 41.5053 53.1493 42.6573 51.272C43.8519 49.352 45.4093 47.88 47.3293 46.856C49.2919 45.7893 51.4893 45.256 53.9213 45.256C56.3106 45.256 58.4226 45.768 60.2573 46.792C62.1346 47.7733 63.6066 49.2027 64.6733 51.08C65.7826 52.9147 66.3373 55.1333 66.3373 57.736V77H56.5453ZM69.3483 80.52L85.0283 28.68H93.5403L77.8603 80.52H69.3483Z" fill="#F26B50"></path>
</svg><style>@media (prefers-color-scheme: light) { :root { filter: none; } }
@media (prefers-color-scheme: dark) { :root { filter: none; } }
</style></svg>